<?xml version="1.0" standalone="no"?>
<svg xmlns:xlink="http://www.w3.org/1999/xlink" id="wave" style="transform:rotate(180deg); transition: 0.3s" viewBox="0 0 1440 140" version="1.1" xmlns="http://www.w3.org/2000/svg"><defs><linearGradient id="sw-gradient-0" x1="0" x2="0" y1="1" y2="0"><stop stop-color="rgba(118.076, 154.817, 221.168, 1)" offset="0%"/><stop stop-color="rgba(21.9, 78.755, 146.034, 1)" offset="100%"/></linearGradient></defs><path style="transform:translate(0, 0px); opacity:1" fill="url(#sw-gradient-0)" d="M0,0L80,9.3C160,19,320,37,480,56C640,75,800,93,960,88.7C1120,84,1280,56,1440,44.3C1600,33,1760,37,1920,46.7C2080,56,2240,70,2400,74.7C2560,79,2720,75,2880,72.3C3040,70,3200,70,3360,72.3C3520,75,3680,79,3840,81.7C4000,84,4160,84,4320,91C4480,98,4640,112,4800,112C4960,112,5120,98,5280,95.7C5440,93,5600,103,5760,95.7C5920,89,6080,65,6240,58.3C6400,51,6560,61,6720,67.7C6880,75,7040,79,7200,79.3C7360,79,7520,75,7680,67.7C7840,61,8000,51,8160,42C8320,33,8480,23,8640,37.3C8800,51,8960,89,9120,86.3C9280,84,9440,42,9600,21C9760,0,9920,0,10080,14C10240,28,10400,56,10560,60.7C10720,65,10880,47,11040,42C11200,37,11360,47,11440,51.3L11520,56L11520,140L11440,140C11360,140,11200,140,11040,140C10880,140,10720,140,10560,140C10400,140,10240,140,10080,140C9920,140,9760,140,9600,140C9440,140,9280,140,9120,140C8960,140,8800,140,8640,140C8480,140,8320,140,8160,140C8000,140,7840,140,7680,140C7520,140,7360,140,7200,140C7040,140,6880,140,6720,140C6560,140,6400,140,6240,140C6080,140,5920,140,5760,140C5600,140,5440,140,5280,140C5120,140,4960,140,4800,140C4640,140,4480,140,4320,140C4160,140,4000,140,3840,140C3680,140,3520,140,3360,140C3200,140,3040,140,2880,140C2720,140,2560,140,2400,140C2240,140,2080,140,1920,140C1760,140,1600,140,1440,140C1280,140,1120,140,960,140C800,140,640,140,480,140C320,140,160,140,80,140L0,140Z"/></svg>